<?xml version="1.0" encoding="UTF-8"?>
<svg width="109px" height="109px" viewBox="0 0 109 109" version="1.1" xmlns="http://www.w3.org/2000/svg" xmlns:xlink="http://www.w3.org/1999/xlink">
    <title>Facebook Logo</title>
    <g id="Icons" stroke="none" stroke-width="1" fill="none" fill-rule="evenodd">
        <g id="Artboard" transform="translate(-291.000000, -44.000000)" fill-rule="nonzero">
            <g id="Facebook-Logo" transform="translate(291.000000, 44.000000)">
                <path d="M54.5,109 L54.5,109 C24.4051,109 0,84.5949 0,54.5 L0,54.5 C0,24.4051 24.4051,0 54.5,0 L54.5,0 C84.5949,0 109,24.4051 109,54.5 L109,54.5 C109,84.5949 84.5949,109 54.5,109 Z" id="Path" fill="#B3B392"></path>
                <path d="M68.4420521,109 L68.4420521,66.8049454 L82.6429203,66.8049454 L84.7730505,50.3648893 L68.4420521,50.3648893 L68.4420521,39.862428 C68.4420521,35.1014575 69.7638252,31.854846 76.6130132,31.854846 L85.3410853,31.854846 L85.3410853,17.157937 C83.8336085,16.961833 78.6448297,16.5151515 72.6149226,16.5151515 C60.0307686,16.5151515 51.411934,24.1741041 51.411934,38.250017 L51.411934,50.375784 L37.1782946,50.375784 L37.1782946,66.8158401 L51.411934,66.8158401 L51.411934,109 L68.4420521,109 Z" id="f" fill="#FFFFFF"></path>
            </g>
        </g>
    </g>
</svg>