<?xml version="1.0" encoding="UTF-8"?>
<svg width="340px" height="68px" viewBox="0 0 340 68" version="1.1" xmlns="http://www.w3.org/2000/svg" xmlns:xlink="http://www.w3.org/1999/xlink">
    <title>NatureHikeTitle</title>
    <g id="Desktop" stroke="none" stroke-width="1" fill="none" fill-rule="evenodd">
        <g id="PostPage#1" transform="translate(-342.000000, -167.000000)">
            <g id="Section-gallery" transform="translate(0.000000, 143.000000)">
                <g id="NatureHikeTitle" transform="translate(342.000000, 24.000000)">
                    <text id="Nature-Hike" font-family="Avenir-Medium, Avenir" font-size="50" font-weight="400" fill="#B3B492">
                        <tspan x="0" y="50">Nature Hike</tspan>
                    </text>
                    <g id="PineTrees" transform="translate(278.000000, 1.900888)" fill="#31493C" stroke="#B3B392">
                        <path d="M31.6490385,1.12828921 L42.6358431,18.6253149 L38.737146,18.6248784 L44.4237192,27.6725119 L40.3896434,27.6718111 L45.9127497,36.4372175 L33.5819456,36.4369889 L33.5826379,44.0708668 L29.7153544,44.0708668 L29.7149698,36.4369891 L17.08725,36.437218 L22.6103661,27.671796 L18.8742577,27.6724968 L24.5597446,18.6248784 L20.6622339,18.6253148 L31.6490385,1.12828921 Z" id="Combined-Shape-Copy-4" stroke-width="1.2"></path>
                        <path d="M49.5,11.3728093 L58.3681213,25.0261148 L55.2052531,25.0257894 L59.8783274,32.2825142 L56.7312391,32.2816229 L61.0793933,38.9811179 L51.2589971,38.9808712 L51.2590332,45.1213108 L48.0421549,45.1213108 L48.0419863,38.9808715 L37.9206062,38.9811185 L42.2687789,32.2815953 L39.4228734,32.2824867 L44.0957198,25.0257976 L40.6318733,25.0261231 L49.5,11.3728093 Z" id="Combined-Shape-Copy-5"></path>
                        <path d="M13.2954545,8.56315692 L22.4498014,23.5588823 L19.0472689,23.5584341 L23.9244448,31.5028818 L20.7102488,31.5024239 L25.1023111,38.5958473 L14.8629512,38.5955366 L14.8635876,45.1213108 L11.7272518,45.1213108 L11.7269791,38.5955374 L0.897687991,38.5958488 L5.28975922,31.502411 L2.37097405,31.5028689 L7.24769442,23.5584228 L4.14111453,23.5588711 L13.2954545,8.56315692 Z" id="Combined-Shape-Copy-6"></path>
                    </g>
                </g>
            </g>
        </g>
    </g>
</svg>